<svg version="1.1" id="Layer_1" xmlns="http://www.w3.org/2000/svg" xmlns:xlink="http://www.w3.org/1999/xlink" x="0px" y="0px"
	 width="100%" viewBox="0 0 1253 1254" enable-background="new 0 0 1253 1254" xml:space="preserve">
<path fill="#040504" opacity="1.000000" stroke="none" 
	d="
M1254.000000,589.000000 
	C1254.000000,589.000000 1254.000000,589.500000 1253.594604,589.914185 
	C1253.164185,594.538025 1253.139160,598.747681 1252.692627,602.984985 
	C1251.514771,604.217712 1250.113403,605.416016 1250.100342,606.629089 
	C1249.947021,620.906799 1249.934570,635.187622 1250.124146,649.464417 
	C1250.139893,650.654480 1251.889404,651.821533 1252.910522,653.454956 
	C1253.325073,657.940430 1253.662598,661.970215 1254.000000,666.000000 
	C1254.000000,666.444458 1254.000000,666.888916 1253.616211,667.800781 
	C1252.822388,669.483948 1252.171753,670.673950 1252.038330,671.919312 
	C1250.316406,687.995239 1249.103516,704.139587 1246.876953,720.143555 
	C1244.716675,735.672791 1242.389038,751.273132 1238.598145,766.458618 
	C1233.122559,788.393250 1227.088501,810.265747 1219.756836,831.637817 
	C1212.489136,852.824036 1204.167969,873.749634 1194.781860,894.084717 
	C1180.801636,924.373108 1164.061279,953.173462 1145.173950,980.782532 
	C1129.632446,1003.501099 1112.859253,1025.211304 1094.553833,1045.655518 
	C1081.543457,1060.186035 1067.393066,1073.747437 1053.174194,1087.128174 
	C1041.374634,1098.232300 1028.697510,1108.400635 1016.474670,1119.058838 
	C1004.179932,1129.779663 991.010376,1138.778564 974.606567,1142.089722 
	C958.975586,1145.245239 943.487061,1149.187866 927.776855,1151.843750 
	C915.242065,1153.963013 902.477051,1155.657959 889.798157,1155.773193 
	C869.637756,1155.956299 849.453552,1154.879761 829.300354,1153.903809 
	C820.193237,1153.462769 811.042786,1152.496460 802.077209,1150.861938 
	C785.896484,1147.912231 769.686462,1144.878174 753.769775,1140.785889 
	C733.263306,1135.513428 712.937134,1129.474854 692.713196,1123.187500 
	C674.960022,1117.668213 657.419189,1111.453735 639.850464,1105.356445 
	C622.290283,1099.262085 604.752625,1093.093140 587.311707,1086.667480 
	C561.754517,1077.251343 536.462524,1067.086914 510.738098,1058.161987 
	C488.475677,1050.438232 465.879913,1043.606934 443.218933,1037.124023 
	C427.920044,1032.747437 412.328522,1029.283569 396.723724,1026.123047 
	C385.285126,1023.806396 373.605621,1022.691223 362.045837,1020.958069 
	C347.579620,1018.789246 333.091827,1018.568481 318.893982,1022.177429 
	C311.480682,1024.061768 304.455902,1027.636963 302.377075,1036.165894 
	C300.930450,1042.101074 302.708435,1047.775146 305.049103,1053.170288 
	C311.452332,1067.929688 320.870209,1080.811646 331.972321,1092.183716 
	C343.354553,1103.842773 355.270111,1115.161011 368.053497,1125.230225 
	C387.033417,1140.180298 407.416321,1153.063354 429.482025,1163.345825 
	C449.239136,1172.552612 469.776825,1179.302612 490.688293,1184.866333 
	C522.868225,1193.428345 555.470093,1200.149780 588.597473,1204.001831 
	C603.504211,1205.735229 618.416443,1207.432495 633.345825,1208.954224 
	C639.402405,1209.571533 645.611511,1209.101074 651.574280,1210.140869 
	C662.803894,1212.099243 673.800964,1210.700806 684.792236,1208.906128 
	C689.691650,1208.106079 690.372070,1204.965942 686.822815,1201.352051 
	C685.668457,1200.176514 684.564880,1198.744995 683.135803,1198.079102 
	C673.562561,1193.618408 664.169983,1188.569214 654.223389,1185.153931 
	C635.119507,1178.594604 615.749329,1172.782104 596.376587,1167.041138 
	C562.069641,1156.874268 527.565002,1147.360962 493.364136,1136.854614 
	C472.633850,1130.486328 452.237427,1122.930542 434.394653,1110.024902 
	C427.278748,1104.877930 421.356598,1098.868164 419.291779,1089.820801 
	C417.690979,1082.806641 421.144989,1076.816406 427.776642,1074.922119 
	C436.645935,1072.388428 445.749542,1073.095825 454.413788,1074.286133 
	C472.155396,1076.723755 489.869751,1079.963501 507.254303,1084.254639 
	C533.283325,1090.679688 559.092834,1098.037231 584.856934,1105.478882 
	C608.890625,1112.420776 632.776794,1119.881836 656.666199,1127.313110 
	C682.693359,1135.409424 708.614563,1143.846924 734.650940,1151.913086 
	C748.444580,1156.186401 762.290649,1160.358032 776.283203,1163.904053 
	C792.358459,1167.978149 808.544495,1171.714844 824.829224,1174.830933 
	C837.106018,1177.180054 849.599304,1178.443115 862.025879,1179.944336 
	C867.569946,1180.614380 873.286560,1180.135864 878.750000,1181.135010 
	C890.661621,1183.313110 902.250061,1180.685059 913.921814,1179.474976 
	C918.950073,1178.953613 923.870361,1177.390259 928.839661,1176.300171 
	C928.132385,1177.799927 927.126160,1178.449585 926.062561,1178.985596 
	C914.146606,1184.990845 902.376587,1191.315796 890.257202,1196.879150 
	C877.298706,1202.828003 864.237671,1208.703247 850.809631,1213.444458 
	C830.414429,1220.645630 809.876526,1227.632935 789.002808,1233.233521 
	C769.410950,1238.490112 749.398438,1242.367798 729.396667,1245.850952 
	C711.618530,1248.947021 693.646606,1251.154053 675.674194,1252.834229 
	C663.002563,1254.019043 650.186218,1253.637329 637.437134,1254.038940 
	C635.949463,1254.085815 634.478638,1254.666748 633.000000,1255.000000 
	C629.307068,1255.000000 625.614197,1255.000000 621.292480,1254.591797 
	C604.829346,1253.455688 588.963867,1253.123779 573.169983,1251.881592 
	C559.212219,1250.783813 545.282654,1249.012207 531.434814,1246.916138 
	C516.088562,1244.593140 500.613434,1242.481323 485.618408,1238.627686 
	C463.103729,1232.841797 440.800049,1226.103638 418.695770,1218.885010 
	C391.212708,1209.909912 364.878174,1198.081055 339.221710,1184.722656 
	C315.329132,1172.282471 292.352295,1158.416138 270.157471,1143.121338 
	C247.600006,1127.576660 226.194305,1110.623291 205.956284,1092.250610 
	C193.604721,1081.037598 181.976974,1068.985718 170.512497,1056.849365 
	C160.261902,1045.998047 150.296509,1034.825317 140.907028,1023.226318 
	C130.513199,1010.386658 120.545700,997.162231 111.049782,983.643677 
	C91.401382,955.671875 74.054024,926.280884 60.121014,895.043823 
	C51.181221,875.001221 42.779659,854.678284 35.122154,834.114136 
	C25.408863,808.029175 18.620489,781.044983 13.007530,753.783386 
	C12.238585,750.048584 11.589652,746.289124 10.885152,742.541077 
	C12.455171,743.220703 13.119462,744.105591 13.583836,745.085327 
	C19.562626,757.700012 25.187370,770.494812 31.544029,782.915283 
	C41.991905,803.329773 55.375168,821.903198 70.676529,838.834351 
	C81.646957,850.973328 94.019531,861.927307 106.370773,872.718384 
	C129.243347,892.701843 156.115753,906.163025 184.216248,916.772644 
	C212.388596,927.409363 240.984711,937.067566 269.802673,945.811279 
	C300.525116,955.132874 331.709656,962.937927 362.720490,971.301086 
	C397.155090,980.587708 431.734741,989.357727 466.037811,999.103943 
	C493.333771,1006.859192 520.772766,1014.503723 547.312378,1024.431763 
	C583.083557,1037.813232 618.953857,1050.684082 655.638306,1061.332642 
	C686.730957,1070.358154 717.985352,1078.604126 749.933716,1084.035400 
	C765.253967,1086.639893 780.499329,1089.768188 795.886353,1091.872192 
	C809.977051,1093.798584 824.193909,1095.495972 838.388489,1095.815063 
	C863.104248,1096.370728 887.821533,1096.579590 912.407349,1092.173584 
	C934.124146,1088.281860 954.680725,1081.436157 974.570984,1072.108154 
	C996.808533,1061.679199 1017.832031,1049.301758 1037.904175,1035.114868 
	C1056.482300,1021.984253 1073.946411,1007.563782 1090.378540,991.923340 
	C1098.844360,983.865662 1106.493286,974.927734 1114.270264,966.173279 
	C1129.275146,949.282166 1142.025879,930.830322 1150.915283,909.987000 
	C1156.023193,898.010620 1159.623047,885.568420 1157.527710,871.617249 
	C1152.016968,872.085693 1146.637329,872.956360 1141.260742,872.937073 
	C1075.343872,872.700378 1009.427551,872.327698 943.510986,872.006287 
	C934.178345,871.960754 924.844543,871.940063 915.513062,872.054016 
	C913.789795,872.075073 911.475891,872.226685 910.456177,873.294006 
	C904.883301,879.127014 899.168640,884.927185 894.419312,891.410217 
	C890.957581,896.135559 892.748596,901.936646 897.823181,904.896973 
	C901.940063,907.298645 906.356384,909.291626 910.829041,910.958496 
	C923.444946,915.660095 936.278198,919.644836 947.762329,927.124756 
	C966.762573,939.500122 963.497986,964.305542 949.040039,976.289856 
	C936.293762,986.855408 920.664062,990.678772 904.584717,991.816101 
	C895.072693,992.488892 885.414612,991.584778 875.852173,990.943298 
	C861.396179,989.973572 847.721313,985.767456 834.476196,980.050781 
	C809.358765,969.209900 789.257446,952.254089 774.838074,929.131836 
	C763.347717,910.706604 761.137451,890.970764 771.050842,870.938354 
	C780.217346,852.415283 794.931152,838.841492 813.203552,830.272217 
	C834.930847,820.082764 857.655396,812.024841 879.917480,802.968750 
	C898.918945,795.238892 918.212097,788.111877 936.735291,779.361206 
	C948.734924,773.692261 960.567322,766.761536 970.707520,758.282776 
	C984.910583,746.406982 988.347473,734.621277 975.611877,719.216675 
	C964.213318,705.429443 948.929565,697.207397 932.455444,691.005066 
	C903.639099,680.155823 873.485046,675.803894 843.029053,674.249451 
	C823.511902,673.253235 803.870789,674.624329 784.287476,675.039062 
	C780.530640,675.118591 776.751892,675.482300 773.039062,676.068237 
	C763.281616,677.607788 753.556335,679.350586 743.815613,680.996765 
	C729.765991,683.371216 715.697205,685.636719 701.667847,688.124756 
	C687.501404,690.637207 673.406189,693.561768 659.218994,695.944214 
	C643.861572,698.523132 628.425598,700.631592 613.039429,703.044006 
	C600.872375,704.951599 588.754639,707.187317 576.567810,708.950867 
	C563.522705,710.838806 550.421753,712.340149 537.346130,714.018005 
	C521.844971,716.007019 506.368469,718.217468 490.837524,719.936768 
	C476.196259,721.557556 461.511932,722.850952 446.820831,723.941895 
	C434.169220,724.881409 421.486053,725.768860 408.808472,725.906616 
	C384.519623,726.170593 360.256989,726.216431 336.026581,723.180725 
	C317.814697,720.899048 300.119507,716.821411 282.751312,711.245972 
	C255.892502,702.623901 230.556473,690.689392 206.313217,676.169739 
	C183.095245,662.264160 161.369644,646.372437 141.768311,627.893188 
	C127.015610,613.984985 113.447098,598.740540 100.113197,583.427673 
	C83.300240,564.119385 69.635963,542.515991 57.569630,519.982178 
	C45.499409,497.441101 35.281044,474.056213 27.967930,449.495453 
	C27.421516,447.660339 27.300798,445.322083 27.940699,443.567261 
	C36.063507,421.292267 43.327572,398.624146 52.895359,376.977722 
	C63.275276,353.493896 74.966927,330.475494 87.727737,308.194000 
	C98.201599,289.905762 110.322487,272.418701 123.089638,255.622726 
	C138.184235,235.764771 154.097092,216.428741 170.898148,197.999557 
	C184.367157,183.225357 199.535675,169.973831 214.252640,156.374115 
	C222.896179,148.386734 231.640808,140.350662 241.199921,133.544220 
	C262.880676,118.106789 285.068237,103.379326 307.105072,88.444893 
	C313.820770,83.893661 320.927643,80.953125 329.492004,81.896233 
	C342.204102,83.296104 354.997040,83.950577 367.748108,85.011421 
	C379.004700,85.947914 390.298737,86.641479 401.490417,88.100319 
	C416.606781,90.070732 431.669128,92.504776 446.701996,95.050919 
	C459.765045,97.263451 472.771729,99.822769 485.772949,102.383011 
	C503.352020,105.844757 520.894653,109.491196 538.466980,112.987717 
	C551.772461,115.635223 565.088989,118.230476 578.420593,120.742783 
	C593.355713,123.557266 608.300415,126.325203 623.265259,128.976334 
	C635.701843,131.179565 648.176392,133.167999 660.629089,135.281219 
	C673.718384,137.502441 686.781799,139.884430 699.893555,141.962555 
	C711.603638,143.818527 723.367554,145.333405 735.101685,147.039902 
	C748.599426,149.002899 762.068787,151.177734 775.591187,152.949707 
	C787.562317,154.518402 799.566284,155.945633 811.597351,156.920868 
	C827.497559,158.209747 843.428162,159.254242 859.366150,159.889236 
	C867.092896,160.197083 874.927124,159.824387 882.602661,158.872681 
	C891.700745,157.744614 900.827026,156.205673 909.666077,153.824020 
	C917.159912,151.804825 919.809631,145.767685 916.856445,138.532593 
	C915.188049,134.445175 912.592102,130.483597 909.575623,127.246407 
	C900.380554,117.378166 888.669250,110.909325 876.738037,105.096802 
	C866.527649,100.122589 855.883728,96.014740 845.335510,91.761787 
	C816.398071,80.094429 786.434448,71.667740 756.245667,64.017799 
	C738.466614,59.512520 720.636536,55.195549 702.765625,51.070309 
	C691.344727,48.433964 679.807312,46.302509 667.110291,43.695911 
	C669.639526,47.771080 671.249023,51.150200 673.566467,53.941563 
	C679.100159,60.606979 686.049927,65.327148 694.346130,68.115456 
	C698.276917,69.436546 702.228943,70.969872 705.792175,73.054932 
	C714.748779,78.295967 717.848267,85.046715 712.839050,91.894691 
	C710.607605,94.945251 706.819946,97.182564 703.306824,98.911377 
	C691.351624,104.794548 678.167053,105.616814 665.301941,105.734047 
	C650.225159,105.871445 635.118652,104.144547 620.047058,102.948723 
	C610.944885,102.226532 601.812866,101.398483 592.821167,99.871010 
	C577.214539,97.219810 561.659729,94.210938 546.168396,90.947449 
	C525.676270,86.630470 505.183960,82.261276 484.842499,77.296753 
	C461.272736,71.544327 437.833130,65.245682 414.405304,58.930775 
	C404.575317,56.281139 394.920685,52.980915 384.277618,49.695995 
	C387.614410,48.274269 389.944092,47.232529 392.310059,46.281067 
	C421.087891,34.708183 450.481506,24.914457 480.741760,18.166861 
	C501.081726,13.631349 521.681335,10.002560 542.331299,7.191092 
	C561.292908,4.609486 580.478210,3.675007 599.560669,1.966378 
	C600.395996,1.891591 601.187866,1.333140 602.000000,0.999994 
	C618.354248,1.000000 634.708435,1.000000 651.699341,1.408118 
	C669.832520,3.209977 687.375732,4.183753 704.811829,6.121709 
	C720.605652,7.877136 736.460022,9.865870 751.967712,13.227925 
	C772.841858,17.753441 793.683411,22.828869 814.031006,29.272217 
	C834.472900,35.745434 854.702393,43.266018 874.277832,52.001881 
	C897.860779,62.526161 921.184021,73.885216 943.630615,86.625443 
	C962.653809,97.422668 980.415955,110.487495 998.469299,122.935806 
	C1018.943054,137.053055 1037.952026,153.076279 1055.713379,170.427032 
	C1071.232056,185.586853 1086.021606,201.509918 1100.784302,217.419617 
	C1108.560547,225.799988 1116.220093,234.425568 1122.828369,243.724854 
	C1137.305664,264.097778 1151.162598,284.915070 1165.083740,305.677643 
	C1168.701538,311.073334 1171.622803,316.936096 1174.864014,322.584351 
	C1165.272461,315.574066 1156.773682,307.564362 1147.195435,301.172058 
	C1123.547729,285.390106 1097.642578,274.385254 1070.558594,265.656128 
	C1038.851318,255.436966 1006.381348,248.840500 973.698608,243.136490 
	C954.656921,239.813217 935.429443,237.511124 916.246399,235.054916 
	C901.194580,233.127670 886.094604,231.550842 870.994202,230.035507 
	C856.170776,228.547974 841.326843,227.248886 826.478821,226.025879 
	C812.898804,224.907318 799.307922,223.898376 785.709717,223.031296 
	C773.047180,222.223907 760.372253,221.588379 747.696228,221.024841 
	C737.449585,220.569305 727.192322,220.042725 716.941284,220.072250 
	C703.522034,220.110886 690.098572,220.522629 676.687317,221.041336 
	C664.677734,221.505859 652.613281,221.754868 640.700928,223.173141 
	C630.167236,224.427277 619.616760,226.494110 609.431396,229.439209 
	C600.094482,232.138992 597.989075,236.295090 598.002136,246.156509 
	C598.033264,269.620239 598.571838,293.109436 594.985352,316.412415 
	C593.038208,329.063629 591.701782,341.872681 588.757629,354.294800 
	C579.364929,393.925629 565.337830,431.998535 547.588928,468.616852 
	C540.867371,482.484344 532.808716,495.729034 524.945007,509.012177 
	C511.238373,532.164978 494.865021,553.435242 476.360748,572.868103 
	C461.982727,587.967651 446.418335,601.948486 431.183624,616.215576 
	C425.472107,621.564331 418.939941,626.039734 413.258301,631.416748 
	C407.114044,637.231506 401.259735,643.408508 395.791687,649.861938 
	C392.275635,654.011597 393.331116,658.060547 397.797760,660.962891 
	C405.607086,666.037109 414.690155,666.555664 423.442627,666.785278 
	C433.420227,667.047058 443.501404,666.143433 453.427704,664.881836 
	C466.271881,663.249329 479.267365,661.739807 491.732178,658.426147 
	C513.417542,652.661438 534.852173,645.880798 556.200867,638.938660 
	C590.500793,627.784912 624.912109,617.329773 660.711914,611.845337 
	C681.471375,608.665161 702.196960,606.028381 723.222351,605.951843 
	C729.809204,605.927917 736.396301,605.019775 742.979004,605.070374 
	C755.063660,605.163147 767.171997,606.317566 779.220215,605.817322 
	C791.294250,605.315918 795.975891,597.502808 793.618408,586.444153 
	C791.584045,576.901306 788.177734,567.659180 785.703857,558.198853 
	C784.156921,552.283142 782.548279,546.253906 782.144165,540.197021 
	C781.397095,528.999084 784.872925,518.479614 788.973328,508.189728 
	C792.171021,500.165192 795.587463,492.211945 798.382324,484.047516 
	C800.763367,477.092163 796.010010,472.282623 788.841614,474.119965 
	C785.767761,474.907806 782.623169,475.989471 779.939758,477.636627 
	C764.716980,486.980621 749.521484,496.377106 734.512695,506.059479 
	C715.175598,518.534058 695.965637,531.122498 674.635681,540.165833 
	C660.591370,546.120178 646.430664,550.624023 630.962585,550.037781 
	C621.187378,549.667175 612.709412,543.958679 611.330261,535.563477 
	C610.014648,527.554993 610.376282,518.923218 611.803711,510.885620 
	C614.619568,495.030304 623.468262,481.753296 632.659607,468.906097 
	C651.669067,442.335693 671.170898,416.114349 689.972534,389.399231 
	C708.419678,363.187805 726.447021,336.660614 740.091797,307.487518 
	C743.678345,299.819244 746.279602,292.016541 746.164978,283.259491 
	C746.076294,276.481750 747.544800,269.772583 752.850586,264.588501 
	C757.992554,259.564423 764.486633,258.211884 771.132629,258.114777 
	C780.044800,257.984619 788.973633,258.569427 797.886292,259.024750 
	C808.896179,259.587128 819.906067,260.206421 830.899109,261.027069 
	C847.246155,262.247467 863.584351,263.597504 879.914734,265.025299 
	C889.842712,265.893341 899.792969,266.698761 909.654358,268.091248 
	C924.096863,270.130585 938.518188,272.403839 952.857971,275.065430 
	C970.782288,278.392303 988.684814,281.901794 1006.470337,285.895386 
	C1033.289551,291.917480 1059.343262,300.295166 1084.831543,310.772949 
	C1105.741089,319.368500 1124.567871,330.981628 1141.163330,345.978241 
	C1151.546143,355.360748 1160.897583,365.985870 1170.003540,376.657745 
	C1185.995117,395.399414 1198.931519,416.298676 1209.874634,438.287231 
	C1218.156860,454.929382 1225.682861,472.006561 1232.492798,489.304535 
	C1238.121216,503.601471 1243.551270,518.230469 1246.614868,533.214111 
	C1249.903442,549.297424 1250.276489,565.971985 1252.058228,582.373779 
	C1252.302856,584.626221 1253.333374,586.793335 1254.000000,589.000000 
M333.121704,646.642578 
	C333.661194,646.682068 334.200653,646.721558 334.740143,646.761047 
	C334.423920,646.321045 334.107727,645.880981 333.349426,644.909424 
	C331.690674,642.895142 330.051056,640.864807 328.369995,638.869324 
	C319.419769,628.244934 309.954407,618.009827 301.604553,606.933411 
	C282.763306,581.939880 265.137634,556.119873 253.016327,527.014893 
	C245.247467,508.360779 239.420914,489.199493 240.058304,468.714203 
	C240.525787,453.689117 248.014435,446.710754 260.571075,445.387817 
	C275.734467,443.790253 291.217499,444.495850 306.520142,445.165436 
	C320.556549,445.779602 334.551605,447.536438 348.536743,449.049896 
	C357.092743,449.975800 365.564240,451.747772 374.129852,452.503937 
	C386.585541,453.603577 391.772949,454.976288 398.082123,444.240692 
	C405.907379,430.925385 411.985321,416.736877 415.954895,401.748260 
	C417.883453,394.466431 417.197174,387.399017 410.334534,383.152496 
	C406.116150,380.542236 400.942871,379.014526 395.997009,378.142395 
	C387.343079,376.616425 378.521423,376.066833 369.793640,374.927185 
	C360.614655,373.728668 351.470428,372.266144 342.297852,371.015381 
	C334.072296,369.893799 325.815765,368.995728 317.596558,367.831818 
	C306.830597,366.307251 296.049164,364.837006 285.345581,362.941406 
	C273.606262,360.862396 261.715698,359.113495 250.323975,355.752991 
	C240.244171,352.779541 231.458557,346.734406 226.074600,337.192047 
	C219.977570,326.385803 221.163559,315.140320 224.615585,303.729889 
	C227.117493,295.460022 232.662186,290.408966 240.498154,288.114410 
	C249.387772,285.511292 258.415955,285.002899 267.896362,285.706787 
	C286.165009,287.063141 303.813507,291.091095 320.964539,296.730896 
	C343.622406,304.181519 366.018982,312.592072 388.050568,321.739594 
	C415.305328,333.055817 442.466461,344.580414 470.817169,352.848114 
	C487.504395,357.714478 504.472107,362.051025 522.129333,360.935059 
	C533.144653,360.238861 542.282288,356.508209 547.397034,345.360474 
	C552.408691,334.437561 556.044312,323.191376 557.894043,311.413849 
	C559.083374,303.840912 559.818848,296.120789 559.844971,288.463531 
	C559.868774,281.477814 559.137756,274.402313 557.895020,267.518799 
	C555.700378,255.362488 551.503418,243.856461 542.977539,234.580414 
	C534.766663,225.647125 523.526489,222.055679 512.283875,219.126114 
	C502.462219,216.566788 492.392914,214.898514 482.376770,213.160706 
	C471.350189,211.247604 460.281677,209.538559 449.189789,208.051071 
	C439.809509,206.793121 430.367615,205.997864 420.956879,204.962738 
	C409.117676,203.660522 397.297791,202.157913 385.440704,201.051132 
	C375.626495,200.135071 365.771118,199.125214 355.932770,199.113052 
	C334.350006,199.086349 312.750244,199.265625 291.189240,200.143219 
	C277.660461,200.693909 264.178955,202.567825 250.695923,204.029327 
	C239.542831,205.238281 229.004837,208.805664 219.196854,214.064133 
	C202.568161,222.979446 189.331970,235.645294 178.858948,251.415482 
	C167.982132,267.793701 160.641281,285.690369 155.058350,304.359680 
	C147.058685,331.110596 143.465836,358.650208 142.121277,386.427826 
	C141.044724,408.668640 141.583755,430.997162 146.138931,452.877594 
	C152.018677,481.120636 160.966339,508.353180 175.195938,533.684265 
	C189.734909,559.566101 207.959808,582.208069 231.223694,600.857422 
	C250.948303,616.669617 272.730927,628.625488 296.546295,636.673096 
	C308.381744,640.672485 320.782501,642.998962 333.121704,646.642578 
M818.416504,550.934570 
	C820.089722,555.939880 821.256653,561.188477 823.524353,565.908142 
	C832.952148,585.529480 849.350952,598.204895 868.024109,607.851562 
	C888.579956,618.470947 909.569153,628.289673 930.639465,637.863220 
	C947.858093,645.686707 965.400391,652.817078 982.931885,659.927734 
	C1004.016846,668.479553 1025.343384,676.439819 1046.374878,685.117920 
	C1063.242554,692.077881 1080.758301,696.400513 1098.798584,697.748840 
	C1108.687012,698.487854 1118.889526,697.431946 1128.734985,695.847229 
	C1150.750000,692.303772 1168.451538,681.017090 1180.706543,662.439636 
	C1192.949341,643.880310 1198.695923,622.897583 1199.935303,600.781982 
	C1200.727661,586.643799 1198.769409,572.667114 1195.425049,558.959045 
	C1191.180176,541.559631 1184.127197,525.275085 1175.012695,509.844269 
	C1162.200073,488.152252 1145.677612,469.644501 1125.738525,454.485321 
	C1104.209229,438.117065 1080.297241,426.160370 1054.184204,418.494690 
	C1031.846191,411.937286 1009.041199,408.894104 985.945679,408.180756 
	C974.139954,407.816101 962.267212,409.207947 950.442200,410.050598 
	C944.105713,410.502106 937.679199,410.913025 931.513489,412.312408 
	C912.292297,416.675049 894.125488,423.827515 877.147034,433.961243 
	C861.124878,443.524292 847.102051,455.297668 836.171387,470.503815 
	C826.732422,483.634735 821.105591,498.448273 818.109192,514.223389 
	C816.895447,520.613464 816.194458,527.188599 816.148132,533.685852 
	C816.109070,539.169800 817.353516,544.662903 818.416504,550.934570 
M1094.637085,737.034912 
	C1088.052246,740.693237 1081.103149,743.828430 1074.952271,748.110291 
	C1058.166382,759.795715 1045.619629,774.874634 1039.581177,794.835388 
	C1036.039673,806.542297 1038.013672,817.542114 1044.889404,827.173401 
	C1055.594849,842.169373 1071.621094,848.260742 1089.160278,849.837341 
	C1109.211914,851.639648 1128.130371,847.020203 1145.644287,836.816650 
	C1164.328735,825.931274 1178.704712,811.023499 1187.144165,791.098206 
	C1189.973755,784.417542 1192.108032,776.627136 1191.641724,769.535828 
	C1190.681030,754.921814 1182.148193,744.337708 1168.999268,738.063660 
	C1144.727661,726.482483 1120.111328,727.131836 1094.637085,737.034912 
z"/>
<path fill="#FFFFFF" opacity="1.000000" stroke="none" 
	d="
M601.531372,0.999994 
	C601.187866,1.333140 600.395996,1.891591 599.560669,1.966378 
	C580.478210,3.675007 561.292908,4.609486 542.331299,7.191092 
	C521.681335,10.002560 501.081726,13.631349 480.741760,18.166861 
	C450.481506,24.914457 421.087891,34.708183 392.310059,46.281067 
	C389.944092,47.232529 387.614410,48.274269 384.277618,49.695995 
	C394.920685,52.980915 404.575317,56.281139 414.405304,58.930775 
	C437.833130,65.245682 461.272736,71.544327 484.842499,77.296753 
	C505.183960,82.261276 525.676270,86.630470 546.168396,90.947449 
	C561.659729,94.210938 577.214539,97.219810 592.821167,99.871010 
	C601.812866,101.398483 610.944885,102.226532 620.047058,102.948723 
	C635.118652,104.144547 650.225159,105.871445 665.301941,105.734047 
	C678.167053,105.616814 691.351624,104.794548 703.306824,98.911377 
	C706.819946,97.182564 710.607605,94.945251 712.839050,91.894691 
	C717.848267,85.046715 714.748779,78.295967 705.792175,73.054932 
	C702.228943,70.969872 698.276917,69.436546 694.346130,68.115456 
	C686.049927,65.327148 679.100159,60.606979 673.566467,53.941563 
	C671.249023,51.150200 669.639526,47.771080 667.110291,43.695911 
	C679.807312,46.302509 691.344727,48.433964 702.765625,51.070309 
	C720.636536,55.195549 738.466614,59.512520 756.245667,64.017799 
	C786.434448,71.667740 816.398071,80.094429 845.335510,91.761787 
	C855.883728,96.014740 866.527649,100.122589 876.738037,105.096802 
	C888.669250,110.909325 900.380554,117.378166 909.575623,127.246407 
	C912.592102,130.483597 915.188049,134.445175 916.856445,138.532593 
	C919.809631,145.767685 917.159912,151.804825 909.666077,153.824020 
	C900.827026,156.205673 891.700745,157.744614 882.602661,158.872681 
	C874.927124,159.824387 867.092896,160.197083 859.366150,159.889236 
	C843.428162,159.254242 827.497559,158.209747 811.597351,156.920868 
	C799.566284,155.945633 787.562317,154.518402 775.591187,152.949707 
	C762.068787,151.177734 748.599426,149.002899 735.101685,147.039902 
	C723.367554,145.333405 711.603638,143.818527 699.893555,141.962555 
	C686.781799,139.884430 673.718384,137.502441 660.629089,135.281219 
	C648.176392,133.167999 635.701843,131.179565 623.265259,128.976334 
	C608.300415,126.325203 593.355713,123.557266 578.420593,120.742783 
	C565.088989,118.230476 551.772461,115.635223 538.466980,112.987717 
	C520.894653,109.491196 503.352020,105.844757 485.772949,102.383011 
	C472.771729,99.822769 459.765045,97.263451 446.701996,95.050919 
	C431.669128,92.504776 416.606781,90.070732 401.490417,88.100319 
	C390.298737,86.641479 379.004700,85.947914 367.748108,85.011421 
	C354.997040,83.950577 342.204102,83.296104 329.492004,81.896233 
	C320.927643,80.953125 313.820770,83.893661 307.105072,88.444893 
	C285.068237,103.379326 262.880676,118.106789 241.199921,133.544220 
	C231.640808,140.350662 222.896179,148.386734 214.252640,156.374115 
	C199.535675,169.973831 184.367157,183.225357 170.898148,197.999557 
	C154.097092,216.428741 138.184235,235.764771 123.089638,255.622726 
	C110.322487,272.418701 98.201599,289.905762 87.727737,308.194000 
	C74.966927,330.475494 63.275276,353.493896 52.895359,376.977722 
	C43.327572,398.624146 36.063507,421.292267 27.940699,443.567261 
	C27.300798,445.322083 27.421516,447.660339 27.967930,449.495453 
	C35.281044,474.056213 45.499409,497.441101 57.569630,519.982178 
	C69.635963,542.515991 83.300240,564.119385 100.113197,583.427673 
	C113.447098,598.740540 127.015610,613.984985 141.768311,627.893188 
	C161.369644,646.372437 183.095245,662.264160 206.313217,676.169739 
	C230.556473,690.689392 255.892502,702.623901 282.751312,711.245972 
	C300.119507,716.821411 317.814697,720.899048 336.026581,723.180725 
	C360.256989,726.216431 384.519623,726.170593 408.808472,725.906616 
	C421.486053,725.768860 434.169220,724.881409 446.820831,723.941895 
	C461.511932,722.850952 476.196259,721.557556 490.837524,719.936768 
	C506.368469,718.217468 521.844971,716.007019 537.346130,714.018005 
	C550.421753,712.340149 563.522705,710.838806 576.567810,708.950867 
	C588.754639,707.187317 600.872375,704.951599 613.039429,703.044006 
	C628.425598,700.631592 643.861572,698.523132 659.218994,695.944214 
	C673.406189,693.561768 687.501404,690.637207 701.667847,688.124756 
	C715.697205,685.636719 729.765991,683.371216 743.815613,680.996765 
	C753.556335,679.350586 763.281616,677.607788 773.039062,676.068237 
	C776.751892,675.482300 780.530640,675.118591 784.287476,675.039062 
	C803.870789,674.624329 823.511902,673.253235 843.029053,674.249451 
	C873.485046,675.803894 903.639099,680.155823 932.455444,691.005066 
	C948.929565,697.207397 964.213318,705.429443 975.611877,719.216675 
	C988.347473,734.621277 984.910583,746.406982 970.707520,758.282776 
	C960.567322,766.761536 948.734924,773.692261 936.735291,779.361206 
	C918.212097,788.111877 898.918945,795.238892 879.917480,802.968750 
	C857.655396,812.024841 834.930847,820.082764 813.203552,830.272217 
	C794.931152,838.841492 780.217346,852.415283 771.050842,870.938354 
	C761.137451,890.970764 763.347717,910.706604 774.838074,929.131836 
	C789.257446,952.254089 809.358765,969.209900 834.476196,980.050781 
	C847.721313,985.767456 861.396179,989.973572 875.852173,990.943298 
	C885.414612,991.584778 895.072693,992.488892 904.584717,991.816101 
	C920.664062,990.678772 936.293762,986.855408 949.040039,976.289856 
	C963.497986,964.305542 966.762573,939.500122 947.762329,927.124756 
	C936.278198,919.644836 923.444946,915.660095 910.829041,910.958496 
	C906.356384,909.291626 901.940063,907.298645 897.823181,904.896973 
	C892.748596,901.936646 890.957581,896.135559 894.419312,891.410217 
	C899.168640,884.927185 904.883301,879.127014 910.456177,873.294006 
	C911.475891,872.226685 913.789795,872.075073 915.513062,872.054016 
	C924.844543,871.940063 934.178345,871.960754 943.510986,872.006287 
	C1009.427551,872.327698 1075.343872,872.700378 1141.260742,872.937073 
	C1146.637329,872.956360 1152.016968,872.085693 1157.527710,871.617249 
	C1159.623047,885.568420 1156.023193,898.010620 1150.915283,909.987000 
	C1142.025879,930.830322 1129.275146,949.282166 1114.270264,966.173279 
	C1106.493286,974.927734 1098.844360,983.865662 1090.378540,991.923340 
	C1073.946411,1007.563782 1056.482300,1021.984253 1037.904175,1035.114868 
	C1017.832031,1049.301758 996.808533,1061.679199 974.570984,1072.108154 
	C954.680725,1081.436157 934.124146,1088.281860 912.407349,1092.173584 
	C887.821533,1096.579590 863.104248,1096.370728 838.388489,1095.815063 
	C824.193909,1095.495972 809.977051,1093.798584 795.886353,1091.872192 
	C780.499329,1089.768188 765.253967,1086.639893 749.933716,1084.035400 
	C717.985352,1078.604126 686.730957,1070.358154 655.638306,1061.332642 
	C618.953857,1050.684082 583.083557,1037.813232 547.312378,1024.431763 
	C520.772766,1014.503723 493.333771,1006.859192 466.037811,999.103943 
	C431.734741,989.357727 397.155090,980.587708 362.720490,971.301086 
	C331.709656,962.937927 300.525116,955.132874 269.802673,945.811279 
	C240.984711,937.067566 212.388596,927.409363 184.216248,916.772644 
	C156.115753,906.163025 129.243347,892.701843 106.370773,872.718384 
	C94.019531,861.927307 81.646957,850.973328 70.676529,838.834351 
	C55.375168,821.903198 41.991905,803.329773 31.544029,782.915283 
	C25.187370,770.494812 19.562626,757.700012 13.583836,745.085327 
	C13.119462,744.105591 12.455171,743.220703 10.885152,742.541077 
	C11.589652,746.289124 12.238585,750.048584 13.007530,753.783386 
	C18.620489,781.044983 25.408863,808.029175 35.122154,834.114136 
	C42.779659,854.678284 51.181221,875.001221 60.121014,895.043823 
	C74.054024,926.280884 91.401382,955.671875 111.049782,983.643677 
	C120.545700,997.162231 130.513199,1010.386658 140.907028,1023.226318 
	C150.296509,1034.825317 160.261902,1045.998047 170.512497,1056.849365 
	C181.976974,1068.985718 193.604721,1081.037598 205.956284,1092.250610 
	C226.194305,1110.623291 247.600006,1127.576660 270.157471,1143.121338 
	C292.352295,1158.416138 315.329132,1172.282471 339.221710,1184.722656 
	C364.878174,1198.081055 391.212708,1209.909912 418.695770,1218.885010 
	C440.800049,1226.103638 463.103729,1232.841797 485.618408,1238.627686 
	C500.613434,1242.481323 516.088562,1244.593140 531.434814,1246.916138 
	C545.282654,1249.012207 559.212219,1250.783813 573.169983,1251.881592 
	C588.963867,1253.123779 604.829346,1253.455688 620.831848,1254.591797 
	C414.405823,1255.000000 207.811646,1255.000000 1.000000,1255.000000 
	C1.000000,1046.312500 1.000000,837.624878 1.386924,628.588989 
	C2.512937,631.667358 3.350931,635.076172 3.974370,638.523804 
	C7.024498,655.390930 9.036025,672.517944 13.248373,689.086914 
	C20.537958,717.760010 30.498926,745.521240 45.950642,771.072205 
	C61.012836,795.979126 80.040428,817.150818 103.800537,833.948730 
	C127.618156,850.787231 154.030533,862.540405 181.476730,871.893555 
	C205.761307,880.169250 230.311783,887.673401 254.805069,895.325439 
	C279.758392,903.121155 304.795654,910.647766 329.776978,918.354370 
	C356.902435,926.722351 384.031036,935.081543 411.111053,943.594849 
	C434.211243,950.856934 457.258026,958.290100 480.304688,965.721191 
	C540.446655,985.113220 600.485046,1004.833923 660.771729,1023.764465 
	C676.321533,1028.647217 692.269348,1032.808594 709.048035,1032.188965 
	C716.142639,1031.927002 719.095886,1027.713257 722.023865,1022.755249 
	C724.503235,1018.557007 722.139282,1014.935242 719.983643,1011.577209 
	C714.236877,1002.625061 708.145569,993.892761 702.455017,984.906128 
	C685.381714,957.944031 677.044739,928.686035 678.901123,896.576660 
	C679.692017,882.897095 683.849548,870.295593 689.484192,858.127075 
	C701.029846,833.193237 718.676147,812.563293 737.040405,792.546997 
	C749.010193,779.500366 761.602539,767.020996 773.449524,753.867371 
	C778.898682,747.817200 784.034058,741.350281 786.125061,732.971863 
	C787.977417,725.549683 785.755737,720.394287 778.630005,718.007446 
	C764.515808,713.279785 750.046509,715.484924 735.744019,716.231628 
	C723.864746,716.851868 712.031433,718.554871 700.211121,720.042725 
	C689.744507,721.360168 679.282593,722.806152 668.893433,724.623413 
	C656.169861,726.848938 643.542480,729.619080 630.839905,731.971985 
	C617.000488,734.535522 603.124329,736.901794 589.260620,739.333374 
	C576.508606,741.569885 563.770752,743.896301 550.990906,745.961975 
	C541.209290,747.543030 531.371033,748.773254 521.559570,750.170654 
	C510.300934,751.774048 499.070221,753.612915 487.778961,754.936523 
	C476.728455,756.231750 465.620789,757.051025 454.531464,758.000549 
	C438.526245,759.371033 422.529541,761.528259 406.502838,761.801147 
	C381.764252,762.222473 356.989868,761.716309 332.257294,760.846558 
	C318.893311,760.376526 305.576202,758.413757 292.253021,756.983643 
	C274.220947,755.048218 256.756134,750.567627 239.483200,745.160339 
	C221.877914,739.648987 205.635635,731.321533 189.813202,722.004578 
	C165.324768,707.584839 143.163696,690.092957 122.426826,670.786316 
	C114.922867,663.799866 107.934883,656.215393 101.127953,648.534668 
	C91.364326,637.517700 81.351074,626.633118 72.569832,614.853088 
	C54.740383,590.934875 38.927357,565.657959 25.548643,538.956299 
	C20.649548,529.178528 16.573212,518.988464 11.748589,508.148529 
	C10.387056,515.288696 8.856120,521.499207 8.069979,527.802673 
	C6.192666,542.855225 4.699467,557.955444 2.927633,573.021912 
	C2.803714,574.075623 1.666189,575.010071 1.000001,576.000000 
	C1.000000,384.404633 1.000000,192.809265 1.000000,1.000000 
	C201.020844,1.000000 401.041779,1.000000 601.531372,0.999994 
z"/>
<path fill="#FFFFFF" opacity="1.000000" stroke="none" 
	d="
M1254.000000,588.531372 
	C1253.333374,586.793335 1252.302856,584.626221 1252.058228,582.373779 
	C1250.276489,565.971985 1249.903442,549.297424 1246.614868,533.214111 
	C1243.551270,518.230469 1238.121216,503.601471 1232.492798,489.304535 
	C1225.682861,472.006561 1218.156860,454.929382 1209.874634,438.287231 
	C1198.931519,416.298676 1185.995117,395.399414 1170.003540,376.657745 
	C1160.897583,365.985870 1151.546143,355.360748 1141.163330,345.978241 
	C1124.567871,330.981628 1105.741089,319.368500 1084.831543,310.772949 
	C1059.343262,300.295166 1033.289551,291.917480 1006.470337,285.895386 
	C988.684814,281.901794 970.782288,278.392303 952.857971,275.065430 
	C938.518188,272.403839 924.096863,270.130585 909.654358,268.091248 
	C899.792969,266.698761 889.842712,265.893341 879.914734,265.025299 
	C863.584351,263.597504 847.246155,262.247467 830.899109,261.027069 
	C819.906067,260.206421 808.896179,259.587128 797.886292,259.024750 
	C788.973633,258.569427 780.044800,257.984619 771.132629,258.114777 
	C764.486633,258.211884 757.992554,259.564423 752.850586,264.588501 
	C747.544800,269.772583 746.076294,276.481750 746.164978,283.259491 
	C746.279602,292.016541 743.678345,299.819244 740.091797,307.487518 
	C726.447021,336.660614 708.419678,363.187805 689.972534,389.399231 
	C671.170898,416.114349 651.669067,442.335693 632.659607,468.906097 
	C623.468262,481.753296 614.619568,495.030304 611.803711,510.885620 
	C610.376282,518.923218 610.014648,527.554993 611.330261,535.563477 
	C612.709412,543.958679 621.187378,549.667175 630.962585,550.037781 
	C646.430664,550.624023 660.591370,546.120178 674.635681,540.165833 
	C695.965637,531.122498 715.175598,518.534058 734.512695,506.059479 
	C749.521484,496.377106 764.716980,486.980621 779.939758,477.636627 
	C782.623169,475.989471 785.767761,474.907806 788.841614,474.119965 
	C796.010010,472.282623 800.763367,477.092163 798.382324,484.047516 
	C795.587463,492.211945 792.171021,500.165192 788.973328,508.189728 
	C784.872925,518.479614 781.397095,528.999084 782.144165,540.197021 
	C782.548279,546.253906 784.156921,552.283142 785.703857,558.198853 
	C788.177734,567.659180 791.584045,576.901306 793.618408,586.444153 
	C795.975891,597.502808 791.294250,605.315918 779.220215,605.817322 
	C767.171997,606.317566 755.063660,605.163147 742.979004,605.070374 
	C736.396301,605.019775 729.809204,605.927917 723.222351,605.951843 
	C702.196960,606.028381 681.471375,608.665161 660.711914,611.845337 
	C624.912109,617.329773 590.500793,627.784912 556.200867,638.938660 
	C534.852173,645.880798 513.417542,652.661438 491.732178,658.426147 
	C479.267365,661.739807 466.271881,663.249329 453.427704,664.881836 
	C443.501404,666.143433 433.420227,667.047058 423.442627,666.785278 
	C414.690155,666.555664 405.607086,666.037109 397.797760,660.962891 
	C393.331116,658.060547 392.275635,654.011597 395.791687,649.861938 
	C401.259735,643.408508 407.114044,637.231506 413.258301,631.416748 
	C418.939941,626.039734 425.472107,621.564331 431.183624,616.215576 
	C446.418335,601.948486 461.982727,587.967651 476.360748,572.868103 
	C494.865021,553.435242 511.238373,532.164978 524.945007,509.012177 
	C532.808716,495.729034 540.867371,482.484344 547.588928,468.616852 
	C565.337830,431.998535 579.364929,393.925629 588.757629,354.294800 
	C591.701782,341.872681 593.038208,329.063629 594.985352,316.412415 
	C598.571838,293.109436 598.033264,269.620239 598.002136,246.156509 
	C597.989075,236.295090 600.094482,232.138992 609.431396,229.439209 
	C619.616760,226.494110 630.167236,224.427277 640.700928,223.173141 
	C652.613281,221.754868 664.677734,221.505859 676.687317,221.041336 
	C690.098572,220.522629 703.522034,220.110886 716.941284,220.072250 
	C727.192322,220.042725 737.449585,220.569305 747.696228,221.024841 
	C760.372253,221.588379 773.047180,222.223907 785.709717,223.031296 
	C799.307922,223.898376 812.898804,224.907318 826.478821,226.025879 
	C841.326843,227.248886 856.170776,228.547974 870.994202,230.035507 
	C886.094604,231.550842 901.194580,233.127670 916.246399,235.054916 
	C935.429443,237.511124 954.656921,239.813217 973.698608,243.136490 
	C1006.381348,248.840500 1038.851318,255.436966 1070.558594,265.656128 
	C1097.642578,274.385254 1123.547729,285.390106 1147.195435,301.172058 
	C1156.773682,307.564362 1165.272461,315.574066 1174.864014,322.584351 
	C1171.622803,316.936096 1168.701538,311.073334 1165.083740,305.677643 
	C1151.162598,284.915070 1137.305664,264.097778 1122.828369,243.724854 
	C1116.220093,234.425568 1108.560547,225.799988 1100.784302,217.419617 
	C1086.021606,201.509918 1071.232056,185.586853 1055.713379,170.427032 
	C1037.952026,153.076279 1018.943054,137.053055 998.469299,122.935806 
	C980.415955,110.487495 962.653809,97.422668 943.630615,86.625443 
	C921.184021,73.885216 897.860779,62.526161 874.277832,52.001881 
	C854.702393,43.266018 834.472900,35.745434 814.031006,29.272217 
	C793.683411,22.828869 772.841858,17.753441 751.967712,13.227925 
	C736.460022,9.865870 720.605652,7.877136 704.811829,6.121709 
	C687.375732,4.183753 669.832520,3.209977 652.167969,1.408118 
	C852.592896,1.000000 1053.185791,1.000000 1254.000000,1.000000 
	C1254.000000,196.687500 1254.000000,392.375092 1254.000000,588.531372 
z"/>
<path fill="#040504" opacity="1.000000" stroke="none" 
	d="
M1.000001,576.375000 
	C1.666189,575.010071 2.803714,574.075623 2.927633,573.021912 
	C4.699467,557.955444 6.192666,542.855225 8.069979,527.802673 
	C8.856120,521.499207 10.387056,515.288696 11.748589,508.148529 
	C16.573212,518.988464 20.649548,529.178528 25.548643,538.956299 
	C38.927357,565.657959 54.740383,590.934875 72.569832,614.853088 
	C81.351074,626.633118 91.364326,637.517700 101.127953,648.534668 
	C107.934883,656.215393 114.922867,663.799866 122.426826,670.786316 
	C143.163696,690.092957 165.324768,707.584839 189.813202,722.004578 
	C205.635635,731.321533 221.877914,739.648987 239.483200,745.160339 
	C256.756134,750.567627 274.220947,755.048218 292.253021,756.983643 
	C305.576202,758.413757 318.893311,760.376526 332.257294,760.846558 
	C356.989868,761.716309 381.764252,762.222473 406.502838,761.801147 
	C422.529541,761.528259 438.526245,759.371033 454.531464,758.000549 
	C465.620789,757.051025 476.728455,756.231750 487.778961,754.936523 
	C499.070221,753.612915 510.300934,751.774048 521.559570,750.170654 
	C531.371033,748.773254 541.209290,747.543030 550.990906,745.961975 
	C563.770752,743.896301 576.508606,741.569885 589.260620,739.333374 
	C603.124329,736.901794 617.000488,734.535522 630.839905,731.971985 
	C643.542480,729.619080 656.169861,726.848938 668.893433,724.623413 
	C679.282593,722.806152 689.744507,721.360168 700.211121,720.042725 
	C712.031433,718.554871 723.864746,716.851868 735.744019,716.231628 
	C750.046509,715.484924 764.515808,713.279785 778.630005,718.007446 
	C785.755737,720.394287 787.977417,725.549683 786.125061,732.971863 
	C784.034058,741.350281 778.898682,747.817200 773.449524,753.867371 
	C761.602539,767.020996 749.010193,779.500366 737.040405,792.546997 
	C718.676147,812.563293 701.029846,833.193237 689.484192,858.127075 
	C683.849548,870.295593 679.692017,882.897095 678.901123,896.576660 
	C677.044739,928.686035 685.381714,957.944031 702.455017,984.906128 
	C708.145569,993.892761 714.236877,1002.625061 719.983643,1011.577209 
	C722.139282,1014.935242 724.503235,1018.557007 722.023865,1022.755249 
	C719.095886,1027.713257 716.142639,1031.927002 709.048035,1032.188965 
	C692.269348,1032.808594 676.321533,1028.647217 660.771729,1023.764465 
	C600.485046,1004.833923 540.446655,985.113220 480.304688,965.721191 
	C457.258026,958.290100 434.211243,950.856934 411.111053,943.594849 
	C384.031036,935.081543 356.902435,926.722351 329.776978,918.354370 
	C304.795654,910.647766 279.758392,903.121155 254.805069,895.325439 
	C230.311783,887.673401 205.761307,880.169250 181.476730,871.893555 
	C154.030533,862.540405 127.618156,850.787231 103.800537,833.948730 
	C80.040428,817.150818 61.012836,795.979126 45.950642,771.072205 
	C30.498926,745.521240 20.537958,717.760010 13.248373,689.086914 
	C9.036025,672.517944 7.024498,655.390930 3.974370,638.523804 
	C3.350931,635.076172 2.512937,631.667358 1.386924,628.120361 
	C1.000000,627.555542 1.000000,627.111084 1.339376,626.248718 
	C1.452504,624.887207 1.226255,623.943604 1.000003,623.000000 
	C1.000000,611.312439 1.000000,599.624878 1.389916,587.325195 
	C1.519887,584.142029 1.259943,581.570984 0.999999,579.000000 
	C1.000000,578.250000 1.000000,577.500000 1.000001,576.375000 
z"/>
<path fill="#FFFFFF" opacity="1.000000" stroke="none" 
	d="
M633.468628,1255.000000 
	C634.478638,1254.666748 635.949463,1254.085815 637.437134,1254.038940 
	C650.186218,1253.637329 663.002563,1254.019043 675.674194,1252.834229 
	C693.646606,1251.154053 711.618530,1248.947021 729.396667,1245.850952 
	C749.398438,1242.367798 769.410950,1238.490112 789.002808,1233.233521 
	C809.876526,1227.632935 830.414429,1220.645630 850.809631,1213.444458 
	C864.237671,1208.703247 877.298706,1202.828003 890.257202,1196.879150 
	C902.376587,1191.315796 914.146606,1184.990845 926.062561,1178.985596 
	C927.126160,1178.449585 928.132385,1177.799927 928.839661,1176.300171 
	C923.870361,1177.390259 918.950073,1178.953613 913.921814,1179.474976 
	C902.250061,1180.685059 890.661621,1183.313110 878.750000,1181.135010 
	C873.286560,1180.135864 867.569946,1180.614380 862.025879,1179.944336 
	C849.599304,1178.443115 837.106018,1177.180054 824.829224,1174.830933 
	C808.544495,1171.714844 792.358459,1167.978149 776.283203,1163.904053 
	C762.290649,1160.358032 748.444580,1156.186401 734.650940,1151.913086 
	C708.614563,1143.846924 682.693359,1135.409424 656.666199,1127.313110 
	C632.776794,1119.881836 608.890625,1112.420776 584.856934,1105.478882 
	C559.092834,1098.037231 533.283325,1090.679688 507.254303,1084.254639 
	C489.869751,1079.963501 472.155396,1076.723755 454.413788,1074.286133 
	C445.749542,1073.095825 436.645935,1072.388428 427.776642,1074.922119 
	C421.144989,1076.816406 417.690979,1082.806641 419.291779,1089.820801 
	C421.356598,1098.868164 427.278748,1104.877930 434.394653,1110.024902 
	C452.237427,1122.930542 472.633850,1130.486328 493.364136,1136.854614 
	C527.565002,1147.360962 562.069641,1156.874268 596.376587,1167.041138 
	C615.749329,1172.782104 635.119507,1178.594604 654.223389,1185.153931 
	C664.169983,1188.569214 673.562561,1193.618408 683.135803,1198.079102 
	C684.564880,1198.744995 685.668457,1200.176514 686.822815,1201.352051 
	C690.372070,1204.965942 689.691650,1208.106079 684.792236,1208.906128 
	C673.800964,1210.700806 662.803894,1212.099243 651.574280,1210.140869 
	C645.611511,1209.101074 639.402405,1209.571533 633.345825,1208.954224 
	C618.416443,1207.432495 603.504211,1205.735229 588.597473,1204.001831 
	C555.470093,1200.149780 522.868225,1193.428345 490.688293,1184.866333 
	C469.776825,1179.302612 449.239136,1172.552612 429.482025,1163.345825 
	C407.416321,1153.063354 387.033417,1140.180298 368.053497,1125.230225 
	C355.270111,1115.161011 343.354553,1103.842773 331.972321,1092.183716 
	C320.870209,1080.811646 311.452332,1067.929688 305.049103,1053.170288 
	C302.708435,1047.775146 300.930450,1042.101074 302.377075,1036.165894 
	C304.455902,1027.636963 311.480682,1024.061768 318.893982,1022.177429 
	C333.091827,1018.568481 347.579620,1018.789246 362.045837,1020.958069 
	C373.605621,1022.691223 385.285126,1023.806396 396.723724,1026.123047 
	C412.328522,1029.283569 427.920044,1032.747437 443.218933,1037.124023 
	C465.879913,1043.606934 488.475677,1050.438232 510.738098,1058.161987 
	C536.462524,1067.086914 561.754517,1077.251343 587.311707,1086.667480 
	C604.752625,1093.093140 622.290283,1099.262085 639.850464,1105.356445 
	C657.419189,1111.453735 674.960022,1117.668213 692.713196,1123.187500 
	C712.937134,1129.474854 733.263306,1135.513428 753.769775,1140.785889 
	C769.686462,1144.878174 785.896484,1147.912231 802.077209,1150.861938 
	C811.042786,1152.496460 820.193237,1153.462769 829.300354,1153.903809 
	C849.453552,1154.879761 869.637756,1155.956299 889.798157,1155.773193 
	C902.477051,1155.657959 915.242065,1153.963013 927.776855,1151.843750 
	C943.487061,1149.187866 958.975586,1145.245239 974.606567,1142.089722 
	C991.010376,1138.778564 1004.179932,1129.779663 1016.474670,1119.058838 
	C1028.697510,1108.400635 1041.374634,1098.232300 1053.174194,1087.128174 
	C1067.393066,1073.747437 1081.543457,1060.186035 1094.553833,1045.655518 
	C1112.859253,1025.211304 1129.632446,1003.501099 1145.173950,980.782532 
	C1164.061279,953.173462 1180.801636,924.373108 1194.781860,894.084717 
	C1204.167969,873.749634 1212.489136,852.824036 1219.756836,831.637817 
	C1227.088501,810.265747 1233.122559,788.393250 1238.598145,766.458618 
	C1242.389038,751.273132 1244.716675,735.672791 1246.876953,720.143555 
	C1249.103516,704.139587 1250.316406,687.995239 1252.038330,671.919312 
	C1252.171753,670.673950 1252.822388,669.483948 1253.616211,668.134155 
	C1254.000000,863.595825 1254.000000,1059.191650 1254.000000,1255.000000 
	C1047.312500,1255.000000 840.624878,1255.000000 633.468628,1255.000000 
z"/>
<path fill="#040504" opacity="1.000000" stroke="none" 
	d="
M1252.833374,652.999268 
	C1251.889404,651.821533 1250.139893,650.654480 1250.124146,649.464417 
	C1249.934570,635.187622 1249.947021,620.906799 1250.100342,606.629089 
	C1250.113403,605.416016 1251.514771,604.217712 1252.914307,602.991333 
	C1253.557495,602.970093 1254.000000,603.000000 1254.000000,603.000000 
	C1254.000000,603.750000 1254.000000,604.500000 1253.604736,605.718567 
	C1252.813843,606.855347 1252.076538,607.521545 1252.072754,608.191956 
	C1251.999634,621.168762 1251.969727,634.146545 1252.092896,647.122559 
	C1252.102051,648.087646 1253.335693,649.041138 1254.000000,650.000000 
	C1254.000000,650.444458 1254.000000,650.888916 1253.718506,651.700562 
	C1253.235718,652.378296 1253.034546,652.688782 1252.833374,652.999268 
z"/>
<path fill="#040504" opacity="1.000000" stroke="none" 
	d="
M1254.000000,649.531372 
	C1253.335693,649.041138 1252.102051,648.087646 1252.092896,647.122559 
	C1251.969727,634.146545 1251.999634,621.168762 1252.072754,608.191956 
	C1252.076538,607.521545 1252.813843,606.855347 1253.604736,606.093567 
	C1254.000000,620.354248 1254.000000,634.708435 1254.000000,649.531372 
z"/>
<path fill="#FFFFFF" opacity="1.000000" stroke="none" 
	d="
M1252.910522,653.454956 
	C1253.034546,652.688782 1253.235718,652.378296 1253.718506,652.033936 
	C1254.000000,656.356873 1254.000000,660.713806 1254.000000,665.535339 
	C1253.662598,661.970215 1253.325073,657.940430 1252.910522,653.454956 
z"/>
<path fill="#FFFFFF" opacity="1.000000" stroke="none" 
	d="
M1254.000000,602.536804 
	C1254.000000,603.000000 1253.557495,602.970093 1253.335815,602.963745 
	C1253.139160,598.747681 1253.164185,594.538025 1253.594604,590.164185 
	C1254.000000,594.024536 1254.000000,598.049072 1254.000000,602.536804 
z"/>
<path fill="#FFFFFF" opacity="1.000000" stroke="none" 
	d="
M0.999999,579.444153 
	C1.259943,581.570984 1.519887,584.142029 1.389916,586.856506 
	C1.000000,584.629456 1.000000,582.258850 0.999999,579.444153 
z"/>
<path fill="#FFFFFF" opacity="1.000000" stroke="none" 
	d="
M1.000003,623.375000 
	C1.226255,623.943604 1.452504,624.887207 1.339376,625.915405 
	C1.000000,625.250000 1.000000,624.500000 1.000003,623.375000 
z"/>
<path fill="#FFFFFF" opacity="1.000000" stroke="none" 
	d="
M332.927521,646.082214 
	C320.782501,642.998962 308.381744,640.672485 296.546295,636.673096 
	C272.730927,628.625488 250.948303,616.669617 231.223694,600.857422 
	C207.959808,582.208069 189.734909,559.566101 175.195938,533.684265 
	C160.966339,508.353180 152.018677,481.120636 146.138931,452.877594 
	C141.583755,430.997162 141.044724,408.668640 142.121277,386.427826 
	C143.465836,358.650208 147.058685,331.110596 155.058350,304.359680 
	C160.641281,285.690369 167.982132,267.793701 178.858948,251.415482 
	C189.331970,235.645294 202.568161,222.979446 219.196854,214.064133 
	C229.004837,208.805664 239.542831,205.238281 250.695923,204.029327 
	C264.178955,202.567825 277.660461,200.693909 291.189240,200.143219 
	C312.750244,199.265625 334.350006,199.086349 355.932770,199.113052 
	C365.771118,199.125214 375.626495,200.135071 385.440704,201.051132 
	C397.297791,202.157913 409.117676,203.660522 420.956879,204.962738 
	C430.367615,205.997864 439.809509,206.793121 449.189789,208.051071 
	C460.281677,209.538559 471.350189,211.247604 482.376770,213.160706 
	C492.392914,214.898514 502.462219,216.566788 512.283875,219.126114 
	C523.526489,222.055679 534.766663,225.647125 542.977539,234.580414 
	C551.503418,243.856461 555.700378,255.362488 557.895020,267.518799 
	C559.137756,274.402313 559.868774,281.477814 559.844971,288.463531 
	C559.818848,296.120789 559.083374,303.840912 557.894043,311.413849 
	C556.044312,323.191376 552.408691,334.437561 547.397034,345.360474 
	C542.282288,356.508209 533.144653,360.238861 522.129333,360.935059 
	C504.472107,362.051025 487.504395,357.714478 470.817169,352.848114 
	C442.466461,344.580414 415.305328,333.055817 388.050568,321.739594 
	C366.018982,312.592072 343.622406,304.181519 320.964539,296.730896 
	C303.813507,291.091095 286.165009,287.063141 267.896362,285.706787 
	C258.415955,285.002899 249.387772,285.511292 240.498154,288.114410 
	C232.662186,290.408966 227.117493,295.460022 224.615585,303.729889 
	C221.163559,315.140320 219.977570,326.385803 226.074600,337.192047 
	C231.458557,346.734406 240.244171,352.779541 250.323975,355.752991 
	C261.715698,359.113495 273.606262,360.862396 285.345581,362.941406 
	C296.049164,364.837006 306.830597,366.307251 317.596558,367.831818 
	C325.815765,368.995728 334.072296,369.893799 342.297852,371.015381 
	C351.470428,372.266144 360.614655,373.728668 369.793640,374.927185 
	C378.521423,376.066833 387.343079,376.616425 395.997009,378.142395 
	C400.942871,379.014526 406.116150,380.542236 410.334534,383.152496 
	C417.197174,387.399017 417.883453,394.466431 415.954895,401.748260 
	C411.985321,416.736877 405.907379,430.925385 398.082123,444.240692 
	C391.772949,454.976288 386.585541,453.603577 374.129852,452.503937 
	C365.564240,451.747772 357.092743,449.975800 348.536743,449.049896 
	C334.551605,447.536438 320.556549,445.779602 306.520142,445.165436 
	C291.217499,444.495850 275.734467,443.790253 260.571075,445.387817 
	C248.014435,446.710754 240.525787,453.689117 240.058304,468.714203 
	C239.420914,489.199493 245.247467,508.360779 253.016327,527.014893 
	C265.137634,556.119873 282.763306,581.939880 301.604553,606.933411 
	C309.954407,618.009827 319.419769,628.244934 328.369995,638.869324 
	C330.051056,640.864807 331.690674,642.895142 333.346985,645.325439 
	C333.205566,645.855103 333.066528,645.968628 332.927521,646.082214 
z"/>
<path fill="#FFFFFF" opacity="1.000000" stroke="none" 
	d="
M818.223145,550.543213 
	C817.353516,544.662903 816.109070,539.169800 816.148132,533.685852 
	C816.194458,527.188599 816.895447,520.613464 818.109192,514.223389 
	C821.105591,498.448273 826.732422,483.634735 836.171387,470.503815 
	C847.102051,455.297668 861.124878,443.524292 877.147034,433.961243 
	C894.125488,423.827515 912.292297,416.675049 931.513489,412.312408 
	C937.679199,410.913025 944.105713,410.502106 950.442200,410.050598 
	C962.267212,409.207947 974.139954,407.816101 985.945679,408.180756 
	C1009.041199,408.894104 1031.846191,411.937286 1054.184204,418.494690 
	C1080.297241,426.160370 1104.209229,438.117065 1125.738525,454.485321 
	C1145.677612,469.644501 1162.200073,488.152252 1175.012695,509.844269 
	C1184.127197,525.275085 1191.180176,541.559631 1195.425049,558.959045 
	C1198.769409,572.667114 1200.727661,586.643799 1199.935303,600.781982 
	C1198.695923,622.897583 1192.949341,643.880310 1180.706543,662.439636 
	C1168.451538,681.017090 1150.750000,692.303772 1128.734985,695.847229 
	C1118.889526,697.431946 1108.687012,698.487854 1098.798584,697.748840 
	C1080.758301,696.400513 1063.242554,692.077881 1046.374878,685.117920 
	C1025.343384,676.439819 1004.016846,668.479553 982.931885,659.927734 
	C965.400391,652.817078 947.858093,645.686707 930.639465,637.863220 
	C909.569153,628.289673 888.579956,618.470947 868.024109,607.851562 
	C849.350952,598.204895 832.952148,585.529480 823.524353,565.908142 
	C821.256653,561.188477 820.089722,555.939880 818.223145,550.543213 
M1087.000000,555.103699 
	C1086.992676,549.771606 1087.705200,544.321167 1086.852051,539.127991 
	C1083.309692,517.563477 1071.639648,500.489563 1055.180420,486.902985 
	C1034.754517,470.041992 1010.440613,462.168823 984.354675,460.137360 
	C967.322571,458.810944 950.437317,460.582825 934.333130,467.008209 
	C923.189392,471.454468 914.347961,478.753906 910.175415,490.052460 
	C905.184509,503.566772 905.599060,517.553406 909.774475,531.344849 
	C915.153870,549.112976 926.530273,562.432251 941.000244,573.539307 
	C965.508789,592.351807 992.949768,599.633423 1023.675964,596.164917 
	C1037.067627,594.653198 1049.602783,591.063293 1061.351562,584.849426 
	C1073.369995,578.492859 1083.513428,570.120605 1087.000000,555.103699 
z"/>
<path fill="#FFFFFF" opacity="1.000000" stroke="none" 
	d="
M1095.036499,736.995850 
	C1120.111328,727.131836 1144.727661,726.482483 1168.999268,738.063660 
	C1182.148193,744.337708 1190.681030,754.921814 1191.641724,769.535828 
	C1192.108032,776.627136 1189.973755,784.417542 1187.144165,791.098206 
	C1178.704712,811.023499 1164.328735,825.931274 1145.644287,836.816650 
	C1128.130371,847.020203 1109.211914,851.639648 1089.160278,849.837341 
	C1071.621094,848.260742 1055.594849,842.169373 1044.889404,827.173401 
	C1038.013672,817.542114 1036.039673,806.542297 1039.581177,794.835388 
	C1045.619629,774.874634 1058.166382,759.795715 1074.952271,748.110291 
	C1081.103149,743.828430 1088.052246,740.693237 1095.036499,736.995850 
z"/>
<path fill="#FFFFFF" opacity="1.000000" stroke="none" 
	d="
M333.568054,645.591248 
	C334.107727,645.880981 334.423920,646.321045 334.740143,646.761047 
	C334.200653,646.721558 333.661194,646.682068 333.024597,646.362427 
	C333.066528,645.968628 333.205566,645.855103 333.568054,645.591248 
z"/>
<path fill="#040504" opacity="1.000000" stroke="none" 
	d="
M1086.999512,555.557007 
	C1083.513428,570.120605 1073.369995,578.492859 1061.351562,584.849426 
	C1049.602783,591.063293 1037.067627,594.653198 1023.675964,596.164917 
	C992.949768,599.633423 965.508789,592.351807 941.000244,573.539307 
	C926.530273,562.432251 915.153870,549.112976 909.774475,531.344849 
	C905.599060,517.553406 905.184509,503.566772 910.175415,490.052460 
	C914.347961,478.753906 923.189392,471.454468 934.333130,467.008209 
	C950.437317,460.582825 967.322571,458.810944 984.354675,460.137360 
	C1010.440613,462.168823 1034.754517,470.041992 1055.180420,486.902985 
	C1071.639648,500.489563 1083.309692,517.563477 1086.852051,539.127991 
	C1087.705200,544.321167 1086.992676,549.771606 1086.999512,555.557007 
z"/>
</svg>